<mxfile host="Electron" agent="Mozilla/5.0 (Windows NT 10.0; Win64; x64) AppleWebKit/537.36 (KHTML, like Gecko) draw.io/24.7.17 Chrome/128.0.6613.36 Electron/32.0.1 Safari/537.36" version="24.7.17">
  <diagram id="Ht1M8jgEwFfnCIfOTk4-" name="Page-1">
    <mxGraphModel dx="785" dy="1358" grid="1" gridSize="10" guides="1" tooltips="1" connect="1" arrows="1" fold="1" page="1" pageScale="1" pageWidth="1169" pageHeight="827" math="0" shadow="0">
      <root>
        <mxCell id="0" />
        <mxCell id="1" parent="0" />
        <mxCell id="uW2cEqSNFjhQwydt63Ot-29" style="rounded=0;orthogonalLoop=1;jettySize=auto;html=1;startArrow=classicThin;startFill=1;edgeStyle=orthogonalEdgeStyle;" edge="1" parent="1" source="uW2cEqSNFjhQwydt63Ot-1" target="uW2cEqSNFjhQwydt63Ot-5">
          <mxGeometry relative="1" as="geometry">
            <mxPoint x="1812.03" y="60" as="sourcePoint" />
          </mxGeometry>
        </mxCell>
        <mxCell id="uW2cEqSNFjhQwydt63Ot-34" value="Взаимодействует" style="edgeLabel;html=1;align=center;verticalAlign=middle;resizable=0;points=[];" vertex="1" connectable="0" parent="uW2cEqSNFjhQwydt63Ot-29">
          <mxGeometry x="-0.004" y="1" relative="1" as="geometry">
            <mxPoint x="38" y="-20" as="offset" />
          </mxGeometry>
        </mxCell>
        <mxCell id="uW2cEqSNFjhQwydt63Ot-1" value="User" style="sketch=0;outlineConnect=0;fontColor=#232F3E;gradientColor=none;fillColor=#232F3D;strokeColor=none;dashed=0;verticalLabelPosition=bottom;verticalAlign=top;align=center;html=1;fontSize=12;fontStyle=0;aspect=fixed;pointerEvents=1;shape=mxgraph.aws4.user;" vertex="1" parent="1">
          <mxGeometry x="1915.03" y="40" width="78" height="78" as="geometry" />
        </mxCell>
        <mxCell id="uW2cEqSNFjhQwydt63Ot-27" style="edgeStyle=orthogonalEdgeStyle;rounded=0;orthogonalLoop=1;jettySize=auto;html=1;dashed=1;endArrow=none;endFill=0;" edge="1" parent="1" source="uW2cEqSNFjhQwydt63Ot-4" target="uW2cEqSNFjhQwydt63Ot-6">
          <mxGeometry relative="1" as="geometry" />
        </mxCell>
        <mxCell id="uW2cEqSNFjhQwydt63Ot-4" value="S3 Bucket" style="sketch=0;outlineConnect=0;fontColor=#232F3E;gradientColor=none;fillColor=#7AA116;strokeColor=none;dashed=0;verticalLabelPosition=bottom;verticalAlign=top;align=center;html=1;fontSize=16;fontStyle=0;aspect=fixed;pointerEvents=1;shape=mxgraph.aws4.bucket;horizontal=1;" vertex="1" parent="1">
          <mxGeometry x="1617.03" y="182" width="75" height="78" as="geometry" />
        </mxCell>
        <mxCell id="uW2cEqSNFjhQwydt63Ot-26" style="edgeStyle=orthogonalEdgeStyle;rounded=0;orthogonalLoop=1;jettySize=auto;html=1;startArrow=classicThin;startFill=1;" edge="1" parent="1" source="uW2cEqSNFjhQwydt63Ot-5" target="uW2cEqSNFjhQwydt63Ot-4">
          <mxGeometry relative="1" as="geometry">
            <Array as="points">
              <mxPoint x="1735.03" y="221" />
              <mxPoint x="1735.03" y="221" />
            </Array>
          </mxGeometry>
        </mxCell>
        <mxCell id="uW2cEqSNFjhQwydt63Ot-35" value="Кеширует&amp;nbsp;&lt;div&gt;и хранит&lt;/div&gt;" style="edgeLabel;html=1;align=center;verticalAlign=middle;resizable=0;points=[];" vertex="1" connectable="0" parent="uW2cEqSNFjhQwydt63Ot-26">
          <mxGeometry x="-0.1224" y="-2" relative="1" as="geometry">
            <mxPoint x="-2" y="-19" as="offset" />
          </mxGeometry>
        </mxCell>
        <mxCell id="uW2cEqSNFjhQwydt63Ot-36" value="Содержит" style="edgeLabel;html=1;align=center;verticalAlign=middle;resizable=0;points=[];" vertex="1" connectable="0" parent="uW2cEqSNFjhQwydt63Ot-26">
          <mxGeometry x="-0.1224" y="-2" relative="1" as="geometry">
            <mxPoint x="-158" y="-16" as="offset" />
          </mxGeometry>
        </mxCell>
        <mxCell id="uW2cEqSNFjhQwydt63Ot-37" value="Направляет&amp;nbsp;&lt;div&gt;API запросы&lt;/div&gt;" style="edgeLabel;html=1;align=center;verticalAlign=middle;resizable=0;points=[];" vertex="1" connectable="0" parent="uW2cEqSNFjhQwydt63Ot-26">
          <mxGeometry x="-0.1224" y="-2" relative="1" as="geometry">
            <mxPoint x="111" y="111" as="offset" />
          </mxGeometry>
        </mxCell>
        <mxCell id="uW2cEqSNFjhQwydt63Ot-38" value="Распределяет&amp;nbsp;&lt;div&gt;API запросы&lt;/div&gt;" style="edgeLabel;html=1;align=center;verticalAlign=middle;resizable=0;points=[];" vertex="1" connectable="0" parent="uW2cEqSNFjhQwydt63Ot-26">
          <mxGeometry x="-0.1224" y="-2" relative="1" as="geometry">
            <mxPoint x="-52" y="202" as="offset" />
          </mxGeometry>
        </mxCell>
        <mxCell id="uW2cEqSNFjhQwydt63Ot-40" value="Выполняет&amp;nbsp;&lt;div&gt;API запросы&lt;/div&gt;" style="edgeLabel;html=1;align=center;verticalAlign=middle;resizable=0;points=[];" vertex="1" connectable="0" parent="uW2cEqSNFjhQwydt63Ot-26">
          <mxGeometry x="-0.1224" y="-2" relative="1" as="geometry">
            <mxPoint x="-182" y="351" as="offset" />
          </mxGeometry>
        </mxCell>
        <mxCell id="uW2cEqSNFjhQwydt63Ot-31" style="rounded=0;orthogonalLoop=1;jettySize=auto;html=1;" edge="1" parent="1" target="uW2cEqSNFjhQwydt63Ot-7">
          <mxGeometry relative="1" as="geometry">
            <mxPoint x="1812.03" y="290" as="sourcePoint" />
          </mxGeometry>
        </mxCell>
        <mxCell id="uW2cEqSNFjhQwydt63Ot-5" value="CloudFront" style="sketch=0;points=[[0,0,0],[0.25,0,0],[0.5,0,0],[0.75,0,0],[1,0,0],[0,1,0],[0.25,1,0],[0.5,1,0],[0.75,1,0],[1,1,0],[0,0.25,0],[0,0.5,0],[0,0.75,0],[1,0.25,0],[1,0.5,0],[1,0.75,0]];outlineConnect=0;fontColor=#232F3E;fillColor=#8C4FFF;strokeColor=#ffffff;dashed=0;verticalLabelPosition=bottom;verticalAlign=top;align=center;html=1;fontSize=16;fontStyle=0;aspect=fixed;shape=mxgraph.aws4.resourceIcon;resIcon=mxgraph.aws4.cloudfront;horizontal=1;" vertex="1" parent="1">
          <mxGeometry x="1773.03" y="182" width="78" height="78" as="geometry" />
        </mxCell>
        <mxCell id="uW2cEqSNFjhQwydt63Ot-6" value="Website Assets" style="sketch=0;pointerEvents=1;shadow=0;dashed=0;html=1;strokeColor=none;fillColor=#505050;labelPosition=center;verticalLabelPosition=bottom;verticalAlign=top;outlineConnect=0;align=center;shape=mxgraph.office.concepts.website;fontSize=16;horizontal=1;" vertex="1" parent="1">
          <mxGeometry x="1455.03" y="183" width="91.51" height="76" as="geometry" />
        </mxCell>
        <mxCell id="uW2cEqSNFjhQwydt63Ot-32" style="edgeStyle=orthogonalEdgeStyle;rounded=0;orthogonalLoop=1;jettySize=auto;html=1;" edge="1" parent="1" source="uW2cEqSNFjhQwydt63Ot-7" target="uW2cEqSNFjhQwydt63Ot-10">
          <mxGeometry relative="1" as="geometry" />
        </mxCell>
        <mxCell id="uW2cEqSNFjhQwydt63Ot-7" value="API Gateway" style="sketch=0;points=[[0,0,0],[0.25,0,0],[0.5,0,0],[0.75,0,0],[1,0,0],[0,1,0],[0.25,1,0],[0.5,1,0],[0.75,1,0],[1,1,0],[0,0.25,0],[0,0.5,0],[0,0.75,0],[1,0.25,0],[1,0.5,0],[1,0.75,0]];outlineConnect=0;fontColor=#232F3E;fillColor=#8C4FFF;strokeColor=#ffffff;dashed=0;verticalLabelPosition=bottom;verticalAlign=top;align=center;html=1;fontSize=16;fontStyle=0;aspect=fixed;shape=mxgraph.aws4.resourceIcon;resIcon=mxgraph.aws4.api_gateway;horizontal=1;" vertex="1" parent="1">
          <mxGeometry x="1773.03" y="401" width="78" height="78" as="geometry" />
        </mxCell>
        <mxCell id="uW2cEqSNFjhQwydt63Ot-21" value="Application Tier" style="rounded=1;arcSize=10;dashed=1;strokeColor=#F59D56;fillColor=none;gradientColor=none;dashPattern=8 4;strokeWidth=2;align=right;fontSize=18;fontStyle=1;spacingRight=24;" vertex="1" parent="1">
          <mxGeometry x="1370" y="150" width="705.03" height="160" as="geometry" />
        </mxCell>
        <mxCell id="uW2cEqSNFjhQwydt63Ot-23" value="Data Tier" style="rounded=1;arcSize=10;dashed=1;strokeColor=#F59D56;fillColor=none;gradientColor=none;dashPattern=8 4;strokeWidth=2;align=right;fontSize=18;fontStyle=1;spacingRight=24;" vertex="1" parent="1">
          <mxGeometry x="1370" y="595.5" width="705.03" height="170" as="geometry" />
        </mxCell>
        <mxCell id="uW2cEqSNFjhQwydt63Ot-20" value="DB Instance" style="sketch=0;outlineConnect=0;fontColor=#232F3E;gradientColor=none;fillColor=#ED7100;strokeColor=none;dashed=0;verticalLabelPosition=bottom;verticalAlign=top;align=center;html=1;fontSize=16;fontStyle=0;aspect=fixed;pointerEvents=1;shape=mxgraph.aws4.db_on_instance2;horizontal=1;" vertex="1" parent="1">
          <mxGeometry x="1461.03" y="625.5" width="101" height="101" as="geometry" />
        </mxCell>
        <mxCell id="uW2cEqSNFjhQwydt63Ot-11" value="" style="group;fontSize=16;horizontal=1;" vertex="1" connectable="0" parent="1">
          <mxGeometry x="1453.03" y="380" width="627.03" height="160" as="geometry" />
        </mxCell>
        <mxCell id="uW2cEqSNFjhQwydt63Ot-8" value="" style="sketch=0;points=[[0,0,0],[0.25,0,0],[0.5,0,0],[0.75,0,0],[1,0,0],[0,1,0],[0.25,1,0],[0.5,1,0],[0.75,1,0],[1,1,0],[0,0.25,0],[0,0.5,0],[0,0.75,0],[1,0.25,0],[1,0.5,0],[1,0.75,0]];outlineConnect=0;fontColor=#232F3E;fillColor=#ED7100;strokeColor=#ffffff;dashed=0;verticalLabelPosition=bottom;verticalAlign=top;align=center;html=1;fontSize=16;fontStyle=0;aspect=fixed;shape=mxgraph.aws4.resourceIcon;resIcon=mxgraph.aws4.lambda;horizontal=1;" vertex="1" parent="uW2cEqSNFjhQwydt63Ot-11">
          <mxGeometry width="78" height="78" as="geometry" />
        </mxCell>
        <mxCell id="uW2cEqSNFjhQwydt63Ot-9" value="" style="sketch=0;points=[[0,0,0],[0.25,0,0],[0.5,0,0],[0.75,0,0],[1,0,0],[0,1,0],[0.25,1,0],[0.5,1,0],[0.75,1,0],[1,1,0],[0,0.25,0],[0,0.5,0],[0,0.75,0],[1,0.25,0],[1,0.5,0],[1,0.75,0]];outlineConnect=0;fontColor=#232F3E;fillColor=#ED7100;strokeColor=#ffffff;dashed=0;verticalLabelPosition=bottom;verticalAlign=top;align=center;html=1;fontSize=16;fontStyle=0;aspect=fixed;shape=mxgraph.aws4.resourceIcon;resIcon=mxgraph.aws4.lambda;horizontal=1;" vertex="1" parent="uW2cEqSNFjhQwydt63Ot-11">
          <mxGeometry x="20.49000000000001" y="10" width="78" height="78" as="geometry" />
        </mxCell>
        <mxCell id="uW2cEqSNFjhQwydt63Ot-10" value="" style="sketch=0;points=[[0,0,0],[0.25,0,0],[0.5,0,0],[0.75,0,0],[1,0,0],[0,1,0],[0.25,1,0],[0.5,1,0],[0.75,1,0],[1,1,0],[0,0.25,0],[0,0.5,0],[0,0.75,0],[1,0.25,0],[1,0.5,0],[1,0.75,0]];outlineConnect=0;fontColor=#232F3E;fillColor=#ED7100;strokeColor=#ffffff;dashed=0;verticalLabelPosition=bottom;verticalAlign=top;align=center;html=1;fontSize=16;fontStyle=0;aspect=fixed;shape=mxgraph.aws4.resourceIcon;resIcon=mxgraph.aws4.lambda;horizontal=1;" vertex="1" parent="uW2cEqSNFjhQwydt63Ot-11">
          <mxGeometry x="40.49000000000001" y="21.5" width="78" height="78" as="geometry" />
        </mxCell>
        <mxCell id="uW2cEqSNFjhQwydt63Ot-22" value="Logic Tier" style="rounded=1;arcSize=10;dashed=1;strokeColor=#F59D56;fillColor=none;gradientColor=none;dashPattern=8 4;strokeWidth=2;align=right;fontSize=18;fontStyle=1;spacingRight=24;" vertex="1" parent="uW2cEqSNFjhQwydt63Ot-11">
          <mxGeometry x="-78" y="-20" width="705.03" height="180" as="geometry" />
        </mxCell>
        <mxCell id="uW2cEqSNFjhQwydt63Ot-33" style="rounded=0;orthogonalLoop=1;jettySize=auto;html=1;jumpStyle=none;sourcePerimeterSpacing=0;" edge="1" parent="1" target="uW2cEqSNFjhQwydt63Ot-20">
          <mxGeometry relative="1" as="geometry">
            <mxPoint x="1512.03" y="530" as="sourcePoint" />
          </mxGeometry>
        </mxCell>
        <mxCell id="uW2cEqSNFjhQwydt63Ot-12" value="Lambda Functions" style="text;html=1;align=center;verticalAlign=middle;whiteSpace=wrap;rounded=0;fontSize=16;horizontal=1;" vertex="1" parent="1">
          <mxGeometry x="1482.27" y="491.5" width="60" height="30" as="geometry" />
        </mxCell>
        <mxCell id="uW2cEqSNFjhQwydt63Ot-41" value="VPC" style="points=[[0,0],[0.25,0],[0.5,0],[0.75,0],[1,0],[1,0.25],[1,0.5],[1,0.75],[1,1],[0.75,1],[0.5,1],[0.25,1],[0,1],[0,0.75],[0,0.5],[0,0.25]];outlineConnect=0;gradientColor=none;html=1;whiteSpace=wrap;fontSize=12;fontStyle=0;container=1;pointerEvents=0;collapsible=0;recursiveResize=0;shape=mxgraph.aws4.group;grIcon=mxgraph.aws4.group_vpc2;strokeColor=#8C4FFF;fillColor=none;verticalAlign=top;align=left;spacingLeft=30;fontColor=#AAB7B8;dashed=0;" vertex="1" parent="1">
          <mxGeometry x="2420" y="129" width="940" height="431" as="geometry" />
        </mxCell>
        <mxCell id="uW2cEqSNFjhQwydt63Ot-43" value="Private subnet A" style="points=[[0,0],[0.25,0],[0.5,0],[0.75,0],[1,0],[1,0.25],[1,0.5],[1,0.75],[1,1],[0.75,1],[0.5,1],[0.25,1],[0,1],[0,0.75],[0,0.5],[0,0.25]];outlineConnect=0;gradientColor=none;html=1;whiteSpace=wrap;fontSize=12;fontStyle=0;container=1;pointerEvents=0;collapsible=0;recursiveResize=0;shape=mxgraph.aws4.group;grIcon=mxgraph.aws4.group_security_group;grStroke=0;strokeColor=#00A4A6;fillColor=#E6F6F7;verticalAlign=top;align=left;spacingLeft=30;fontColor=#147EBA;dashed=0;" vertex="1" parent="uW2cEqSNFjhQwydt63Ot-41">
          <mxGeometry x="330" y="51" width="220" height="150" as="geometry" />
        </mxCell>
        <mxCell id="uW2cEqSNFjhQwydt63Ot-58" value="Instances" style="outlineConnect=0;dashed=0;verticalLabelPosition=bottom;verticalAlign=top;align=center;html=1;shape=mxgraph.aws3.instances;fillColor=#F58534;gradientColor=none;" vertex="1" parent="uW2cEqSNFjhQwydt63Ot-43">
          <mxGeometry x="20" y="42.5" width="60" height="63" as="geometry" />
        </mxCell>
        <mxCell id="uW2cEqSNFjhQwydt63Ot-78" value="10.0.11.0/24" style="text;html=1;align=center;verticalAlign=middle;resizable=0;points=[];autosize=1;strokeColor=none;fillColor=none;" vertex="1" parent="uW2cEqSNFjhQwydt63Ot-43">
          <mxGeometry x="130" width="90" height="30" as="geometry" />
        </mxCell>
        <mxCell id="uW2cEqSNFjhQwydt63Ot-44" value="DB subnet A" style="points=[[0,0],[0.25,0],[0.5,0],[0.75,0],[1,0],[1,0.25],[1,0.5],[1,0.75],[1,1],[0.75,1],[0.5,1],[0.25,1],[0,1],[0,0.75],[0,0.5],[0,0.25]];outlineConnect=0;html=1;whiteSpace=wrap;fontSize=12;fontStyle=0;container=1;pointerEvents=0;collapsible=0;recursiveResize=0;shape=mxgraph.aws4.group;grIcon=mxgraph.aws4.group_security_group;grStroke=0;strokeColor=#9673a6;fillColor=#e1d5e7;verticalAlign=top;align=left;spacingLeft=30;dashed=0;" vertex="1" parent="uW2cEqSNFjhQwydt63Ot-41">
          <mxGeometry x="40" y="51" width="220" height="150" as="geometry" />
        </mxCell>
        <mxCell id="uW2cEqSNFjhQwydt63Ot-60" value="DB Instance" style="sketch=0;outlineConnect=0;fontColor=#232F3E;gradientColor=none;fillColor=#ED7100;strokeColor=none;dashed=0;verticalLabelPosition=bottom;verticalAlign=top;align=center;html=1;fontSize=12;fontStyle=0;aspect=fixed;pointerEvents=1;shape=mxgraph.aws4.db_on_instance2;horizontal=1;" vertex="1" parent="uW2cEqSNFjhQwydt63Ot-44">
          <mxGeometry x="20" y="44.5" width="61" height="61" as="geometry" />
        </mxCell>
        <mxCell id="uW2cEqSNFjhQwydt63Ot-74" value="10.0.10.0/24" style="text;html=1;align=center;verticalAlign=middle;resizable=0;points=[];autosize=1;strokeColor=none;fillColor=none;" vertex="1" parent="uW2cEqSNFjhQwydt63Ot-44">
          <mxGeometry x="130" width="90" height="30" as="geometry" />
        </mxCell>
        <mxCell id="uW2cEqSNFjhQwydt63Ot-48" value="Public subnet B" style="points=[[0,0],[0.25,0],[0.5,0],[0.75,0],[1,0],[1,0.25],[1,0.5],[1,0.75],[1,1],[0.75,1],[0.5,1],[0.25,1],[0,1],[0,0.75],[0,0.5],[0,0.25]];outlineConnect=0;gradientColor=none;html=1;whiteSpace=wrap;fontSize=12;fontStyle=0;container=1;pointerEvents=0;collapsible=0;recursiveResize=0;shape=mxgraph.aws4.group;grIcon=mxgraph.aws4.group_security_group;grStroke=0;strokeColor=#7AA116;fillColor=#F2F6E8;verticalAlign=top;align=left;spacingLeft=30;fontColor=#248814;dashed=0;" vertex="1" parent="uW2cEqSNFjhQwydt63Ot-41">
          <mxGeometry x="620" y="251" width="230" height="150" as="geometry" />
        </mxCell>
        <mxCell id="uW2cEqSNFjhQwydt63Ot-54" value="Jump Server&lt;div&gt;(Public IP)&lt;br&gt;&lt;/div&gt;" style="outlineConnect=0;verticalLabelPosition=bottom;verticalAlign=top;align=center;html=1;shape=mxgraph.aws3.instance;fillColor=#D6D6D6;strokeWidth=20;strokeColor=#666666;fontColor=#ababab;" vertex="1" parent="uW2cEqSNFjhQwydt63Ot-48">
          <mxGeometry x="20" y="43.5" width="60" height="63" as="geometry" />
        </mxCell>
        <mxCell id="uW2cEqSNFjhQwydt63Ot-55" value="" style="html=1;shadow=0;dashed=0;align=center;verticalAlign=middle;shape=mxgraph.arrows2.jumpInArrow;dy=6.08;dx=16.19;arrowHead=30;fillColor=#FFF5F5;" vertex="1" parent="uW2cEqSNFjhQwydt63Ot-48">
          <mxGeometry x="25" y="53.5" width="50" height="40" as="geometry" />
        </mxCell>
        <mxCell id="uW2cEqSNFjhQwydt63Ot-57" value="NAT Gateway" style="outlineConnect=0;dashed=0;verticalLabelPosition=bottom;verticalAlign=top;align=center;html=1;shape=mxgraph.aws3.vpc_nat_gateway;fillColor=#F58534;gradientColor=none;" vertex="1" parent="uW2cEqSNFjhQwydt63Ot-48">
          <mxGeometry x="115.5" y="39" width="69" height="72" as="geometry" />
        </mxCell>
        <mxCell id="uW2cEqSNFjhQwydt63Ot-86" value="10.0.22.0/24" style="text;html=1;align=center;verticalAlign=middle;resizable=0;points=[];autosize=1;strokeColor=none;fillColor=none;" vertex="1" parent="uW2cEqSNFjhQwydt63Ot-48">
          <mxGeometry x="140" width="90" height="30" as="geometry" />
        </mxCell>
        <mxCell id="uW2cEqSNFjhQwydt63Ot-42" value="Public subnet A" style="points=[[0,0],[0.25,0],[0.5,0],[0.75,0],[1,0],[1,0.25],[1,0.5],[1,0.75],[1,1],[0.75,1],[0.5,1],[0.25,1],[0,1],[0,0.75],[0,0.5],[0,0.25]];outlineConnect=0;gradientColor=none;html=1;whiteSpace=wrap;fontSize=12;fontStyle=0;container=1;pointerEvents=0;collapsible=0;recursiveResize=0;shape=mxgraph.aws4.group;grIcon=mxgraph.aws4.group_security_group;grStroke=0;strokeColor=#7AA116;fillColor=#F2F6E8;verticalAlign=top;align=left;spacingLeft=30;fontColor=#248814;dashed=0;" vertex="1" parent="uW2cEqSNFjhQwydt63Ot-41">
          <mxGeometry x="620" y="51" width="230" height="150" as="geometry" />
        </mxCell>
        <mxCell id="uW2cEqSNFjhQwydt63Ot-52" value="" style="group" vertex="1" connectable="0" parent="uW2cEqSNFjhQwydt63Ot-42">
          <mxGeometry x="20" y="43.5" width="60" height="63" as="geometry" />
        </mxCell>
        <mxCell id="uW2cEqSNFjhQwydt63Ot-50" value="Jump Server&lt;br&gt;(Public IP)" style="outlineConnect=0;dashed=0;verticalLabelPosition=bottom;verticalAlign=top;align=center;html=1;shape=mxgraph.aws3.instance;fillColor=#F58534;gradientColor=none;" vertex="1" parent="uW2cEqSNFjhQwydt63Ot-52">
          <mxGeometry width="60" height="63" as="geometry" />
        </mxCell>
        <mxCell id="uW2cEqSNFjhQwydt63Ot-51" value="" style="html=1;shadow=0;dashed=0;align=center;verticalAlign=middle;shape=mxgraph.arrows2.jumpInArrow;dy=6.08;dx=16.19;arrowHead=30;" vertex="1" parent="uW2cEqSNFjhQwydt63Ot-52">
          <mxGeometry x="5" y="11.5" width="50" height="40" as="geometry" />
        </mxCell>
        <mxCell id="uW2cEqSNFjhQwydt63Ot-56" value="NAT Gateway" style="outlineConnect=0;dashed=0;verticalLabelPosition=bottom;verticalAlign=top;align=center;html=1;shape=mxgraph.aws3.vpc_nat_gateway;fillColor=#F58534;gradientColor=none;" vertex="1" parent="uW2cEqSNFjhQwydt63Ot-42">
          <mxGeometry x="115.5" y="39" width="69" height="72" as="geometry" />
        </mxCell>
        <mxCell id="uW2cEqSNFjhQwydt63Ot-85" value="10.0.12.0/24" style="text;html=1;align=center;verticalAlign=middle;resizable=0;points=[];autosize=1;strokeColor=none;fillColor=none;" vertex="1" parent="uW2cEqSNFjhQwydt63Ot-42">
          <mxGeometry x="140" width="90" height="30" as="geometry" />
        </mxCell>
        <mxCell id="uW2cEqSNFjhQwydt63Ot-64" value="10.0.0.0/16" style="text;html=1;align=center;verticalAlign=middle;resizable=0;points=[];autosize=1;strokeColor=none;fillColor=none;fontStyle=1;fontSize=16;fontColor=#000000;" vertex="1" parent="uW2cEqSNFjhQwydt63Ot-41">
          <mxGeometry x="840" width="100" height="30" as="geometry" />
        </mxCell>
        <mxCell id="uW2cEqSNFjhQwydt63Ot-79" value="DB subnet A" style="points=[[0,0],[0.25,0],[0.5,0],[0.75,0],[1,0],[1,0.25],[1,0.5],[1,0.75],[1,1],[0.75,1],[0.5,1],[0.25,1],[0,1],[0,0.75],[0,0.5],[0,0.25]];outlineConnect=0;html=1;whiteSpace=wrap;fontSize=12;fontStyle=0;container=1;pointerEvents=0;collapsible=0;recursiveResize=0;shape=mxgraph.aws4.group;grIcon=mxgraph.aws4.group_security_group;grStroke=0;strokeColor=#9673a6;fillColor=#e1d5e7;verticalAlign=top;align=left;spacingLeft=30;dashed=0;" vertex="1" parent="uW2cEqSNFjhQwydt63Ot-41">
          <mxGeometry x="40" y="251" width="220" height="150" as="geometry" />
        </mxCell>
        <mxCell id="uW2cEqSNFjhQwydt63Ot-80" value="DB Instance" style="sketch=0;outlineConnect=0;fontColor=#232F3E;gradientColor=none;fillColor=#ED7100;strokeColor=none;dashed=0;verticalLabelPosition=bottom;verticalAlign=top;align=center;html=1;fontSize=12;fontStyle=0;aspect=fixed;pointerEvents=1;shape=mxgraph.aws4.db_on_instance2;horizontal=1;" vertex="1" parent="uW2cEqSNFjhQwydt63Ot-79">
          <mxGeometry x="20" y="44.5" width="61" height="61" as="geometry" />
        </mxCell>
        <mxCell id="uW2cEqSNFjhQwydt63Ot-81" value="10.0.20.0/24" style="text;html=1;align=center;verticalAlign=middle;resizable=0;points=[];autosize=1;strokeColor=none;fillColor=none;" vertex="1" parent="uW2cEqSNFjhQwydt63Ot-79">
          <mxGeometry x="130" width="90" height="30" as="geometry" />
        </mxCell>
        <mxCell id="uW2cEqSNFjhQwydt63Ot-82" value="Private subnet A" style="points=[[0,0],[0.25,0],[0.5,0],[0.75,0],[1,0],[1,0.25],[1,0.5],[1,0.75],[1,1],[0.75,1],[0.5,1],[0.25,1],[0,1],[0,0.75],[0,0.5],[0,0.25]];outlineConnect=0;gradientColor=none;html=1;whiteSpace=wrap;fontSize=12;fontStyle=0;container=1;pointerEvents=0;collapsible=0;recursiveResize=0;shape=mxgraph.aws4.group;grIcon=mxgraph.aws4.group_security_group;grStroke=0;strokeColor=#00A4A6;fillColor=#E6F6F7;verticalAlign=top;align=left;spacingLeft=30;fontColor=#147EBA;dashed=0;" vertex="1" parent="uW2cEqSNFjhQwydt63Ot-41">
          <mxGeometry x="330" y="251" width="220" height="150" as="geometry" />
        </mxCell>
        <mxCell id="uW2cEqSNFjhQwydt63Ot-83" value="Instances" style="outlineConnect=0;dashed=0;verticalLabelPosition=bottom;verticalAlign=top;align=center;html=1;shape=mxgraph.aws3.instances;fillColor=#F58534;gradientColor=none;" vertex="1" parent="uW2cEqSNFjhQwydt63Ot-82">
          <mxGeometry x="20" y="42.5" width="60" height="63" as="geometry" />
        </mxCell>
        <mxCell id="uW2cEqSNFjhQwydt63Ot-84" value="10.0.21.0/24" style="text;html=1;align=center;verticalAlign=middle;resizable=0;points=[];autosize=1;strokeColor=none;fillColor=none;" vertex="1" parent="uW2cEqSNFjhQwydt63Ot-82">
          <mxGeometry x="130" width="90" height="30" as="geometry" />
        </mxCell>
        <mxCell id="uW2cEqSNFjhQwydt63Ot-66" value="AutoScaling &#xa;Group" style="rounded=1;arcSize=10;dashed=1;strokeColor=#F59D56;fillColor=none;gradientColor=none;dashPattern=8 4;strokeWidth=2;movable=1;resizable=1;rotatable=1;deletable=1;editable=1;locked=0;connectable=1;spacingBottom=28;" vertex="1" parent="uW2cEqSNFjhQwydt63Ot-41">
          <mxGeometry x="620" y="81" width="100" height="319" as="geometry" />
        </mxCell>
        <mxCell id="uW2cEqSNFjhQwydt63Ot-87" style="edgeStyle=orthogonalEdgeStyle;rounded=0;orthogonalLoop=1;jettySize=auto;html=1;startArrow=classic;startFill=1;" edge="1" parent="uW2cEqSNFjhQwydt63Ot-41" source="uW2cEqSNFjhQwydt63Ot-49" target="uW2cEqSNFjhQwydt63Ot-42">
          <mxGeometry relative="1" as="geometry" />
        </mxCell>
        <mxCell id="uW2cEqSNFjhQwydt63Ot-88" style="edgeStyle=orthogonalEdgeStyle;rounded=0;orthogonalLoop=1;jettySize=auto;html=1;startArrow=classic;startFill=1;" edge="1" parent="uW2cEqSNFjhQwydt63Ot-41" source="uW2cEqSNFjhQwydt63Ot-49" target="uW2cEqSNFjhQwydt63Ot-48">
          <mxGeometry relative="1" as="geometry" />
        </mxCell>
        <mxCell id="uW2cEqSNFjhQwydt63Ot-49" value="Internet Gateway" style="sketch=0;outlineConnect=0;fontColor=#232F3E;gradientColor=none;fillColor=#8C4FFF;strokeColor=none;dashed=0;verticalLabelPosition=bottom;verticalAlign=top;align=center;html=1;fontSize=14;fontStyle=1;aspect=fixed;pointerEvents=1;shape=mxgraph.aws4.internet_gateway;" vertex="1" parent="uW2cEqSNFjhQwydt63Ot-41">
          <mxGeometry x="900" y="176.5" width="78" height="78" as="geometry" />
        </mxCell>
      </root>
    </mxGraphModel>
  </diagram>
</mxfile>
